<svg id="Layer_1" data-name="Layer 1" xmlns="http://www.w3.org/2000/svg" viewBox="0 0 102.05 73.7"><title>cafedepraia</title><path d="M47.67,59.66l-.24-.3a4.06,4.06,0,0,1-.6-1.42A3.73,3.73,0,0,1,48.31,54c.42-.35.91-.62,1.35-.92l-.34.06-.4.07a11.44,11.44,0,0,0-3.83,1.38,19,19,0,0,1-1.82.87,4.61,4.61,0,0,1,2.54-3.1,5.63,5.63,0,0,1,4-.09,9.74,9.74,0,0,0-2.27-.86c-.79-.18-1.58-.33-2.38-.49,0,0,0,0,0,0a4.42,4.42,0,0,1,2.16-1.1,2.56,2.56,0,0,1,2.19.67,5.4,5.4,0,0,1,1.22,1.59s0,.09.09.17l.07-.32a3.45,3.45,0,0,1,.72-1.52,2.83,2.83,0,0,1,2.13-.92,6.71,6.71,0,0,1,2.44.42,13.75,13.75,0,0,0-4.76,2.5c.22-.09.44-.19.67-.26a2.62,2.62,0,0,1,1.79,0,2.32,2.32,0,0,1,1,.75,4.2,4.2,0,0,1,.71,1.61,4.18,4.18,0,0,0-1.38-.73,18.09,18.09,0,0,0-3-.72.56.56,0,0,0-.64.27,20.63,20.63,0,0,0-2.27,3.84A8.09,8.09,0,0,0,48,58c-.11.36-.21.72-.3,1.09a3.87,3.87,0,0,0-.07.56"/><path d="M53.19,62.83A3.53,3.53,0,0,1,55,64.64a.37.37,0,0,1-.56-.14,1.52,1.52,0,0,0-.84-.66,1.48,1.48,0,0,0-1.69.62c-.09.12-.18.24-.34.25a.43.43,0,0,1-.43-.24,1.49,1.49,0,0,0-1.8-.59,1.43,1.43,0,0,0-.72.59.42.42,0,0,1-.76,0,6.48,6.48,0,0,0-.44-.49,3.46,3.46,0,0,1,.71-.72,4.88,4.88,0,0,1,3.07-.9l.56.05c.12,0,.17,0,.15.18a.69.69,0,0,0,0,.2.36.36,0,0,0,.33.33l.42,0a.43.43,0,0,0,.51-.33"/><path d="M46.58,64.05a1.23,1.23,0,0,1,1.07.59.65.65,0,0,0,.8.31.76.76,0,0,0,.37-.29,1.24,1.24,0,0,1,2.13,0,.67.67,0,0,0,1.17,0,1.21,1.21,0,0,1,2.1,0,.7.7,0,0,0,.67.34l1-.06a1.22,1.22,0,0,1-2,.07l-.07-.09a.67.67,0,0,0-1.15,0,1.22,1.22,0,0,1-2.08.07,1.73,1.73,0,0,0-.17-.21.67.67,0,0,0-1,.15,1.19,1.19,0,0,1-.9.6,1.06,1.06,0,0,1-.95-.3c-.31-.36-.56-.76-.87-1.17"/><path d="M52,62.38V62a.27.27,0,0,1,.3-.29l.58,0a.24.24,0,0,1,.24.29c0,.27-.06.55-.11.82a.2.2,0,0,1-.23.19,4.93,4.93,0,0,1-.55,0,.21.21,0,0,1-.21-.23v-.41Z"/><path d="M53.11,58.17v.37c0,.14,0,.22-.21.22l-.62.05c-.14,0-.18-.07-.2-.18,0-.28-.07-.56-.1-.84a.24.24,0,0,1,.25-.26l.55,0a.27.27,0,0,1,.33.27,1.47,1.47,0,0,1,0,.21v.2Z"/><path d="M51.25,55.09a.91.91,0,0,1,.23-.21c.19-.07.39-.11.58-.16a.23.23,0,0,1,.31.19c.07.27.11.55.16.83,0,.1,0,.17-.15.2s-.4.11-.61.15a.22.22,0,0,1-.18-.06c-.12-.29-.22-.6-.34-.94"/><path d="M51.7,53.34a.85.85,0,0,1,.2.22c.08.25.14.52.21.78a.19.19,0,0,1-.16.25,6.25,6.25,0,0,1-.62.16.21.21,0,0,1-.17-.08c-.11-.25-.22-.5-.32-.75a.25.25,0,0,1,.17-.35l.69-.23"/><path d="M51.61,56.45c.07-.07.12-.17.21-.2a5.87,5.87,0,0,1,.6-.16.21.21,0,0,1,.29.18c.06.26.12.52.17.79s0,.27-.24.29-.4.07-.59.09a.21.21,0,0,1-.15-.09c-.09-.24-.16-.49-.24-.73l0-.14,0,0"/><path d="M52.12,61v-.38a.25.25,0,0,1,.28-.27l.6,0a.25.25,0,0,1,.24.3c0,.25-.07.51-.1.77a.19.19,0,0,1-.24.18,5.68,5.68,0,0,0-.59,0c-.13,0-.18-.07-.18-.19s0-.28,0-.42Z"/><path d="M52.64,60.17h-.18c-.26,0-.26,0-.3-.27s0-.4-.07-.6.06-.31.28-.33l.52-.07c.18,0,.27,0,.28.23a8.42,8.42,0,0,1,0,.87.19.19,0,0,1-.23.2l-.31,0h0"/><path d="M7.56,39.06l.25.22a2.83,2.83,0,0,1-2,.75,2.91,2.91,0,0,1,0-5.82,2.84,2.84,0,0,1,2,.76l-.25.22a2.48,2.48,0,0,0-1.71-.65A2.49,2.49,0,0,0,4,35.3,2.57,2.57,0,0,0,4,39a2.45,2.45,0,0,0,1.82.76,2.48,2.48,0,0,0,1.71-.65"/><path d="M14.59,34.28,16.65,40h-.34l-.91-2.49h-2L12.51,40h-.34l2.09-5.68Zm.69,2.87-.86-2.39-.87,2.39Z"/><polygon points="23.71 34.28 23.71 34.6 21.55 34.6 21.55 36.96 23.71 36.96 23.71 37.28 21.55 37.28 21.55 39.97 21.23 39.97 21.23 34.28 23.71 34.28"/><path d="M31.33,34.28v.32H28.81V37h2.52v.32H28.81v2.36h2.52V40H28.49V34.28Zm-.64-1.08-.87.66h-.3l.58-.66Z"/><path d="M43.55,34.28a3,3,0,0,1,2.18.79,2.83,2.83,0,0,1,.85,2,2.85,2.85,0,0,1-.85,2.07,3,3,0,0,1-2.18.78h-1V34.28Zm-.73.34v5h.73A2.64,2.64,0,0,0,45.48,39a2.57,2.57,0,0,0,0-3.65,2.63,2.63,0,0,0-1.93-.68Z"/><polygon points="54.23 34.28 54.23 34.6 51.72 34.6 51.72 36.96 54.23 36.96 54.23 37.28 51.72 37.28 51.72 39.64 54.23 39.64 54.23 39.97 51.39 39.97 51.39 34.28 54.23 34.28"/><path d="M65.73,38v2h-.32V34.28H66.9a1.89,1.89,0,0,1,1.1.54,1.84,1.84,0,0,1,.55,1.32A1.88,1.88,0,0,1,66.69,38Zm0-3.39v3.06h1a1.53,1.53,0,0,0,1.08-2.62,1.5,1.5,0,0,0-1.08-.44Z"/><path d="M74.76,38H73.7v2h-.32V34.28h1.49a1.89,1.89,0,0,1,1.1.54,1.83,1.83,0,0,1,.54,1.32A1.79,1.79,0,0,1,76,37.45a1.74,1.74,0,0,1-.86.49l1.31,2H76ZM73.7,34.61v3.06h1a1.53,1.53,0,0,0,1.08-2.62,1.5,1.5,0,0,0-1.08-.44Z"/><path d="M83.31,34.28,85.37,40H85l-.91-2.49h-2L81.23,40h-.34L83,34.28Zm.7,2.87-.87-2.39-.87,2.39Z"/><rect x="89.99" y="34.28" width="0.32" height="5.68"/><path d="M97.32,34.28,99.39,40h-.34l-.91-2.49h-2L95.25,40h-.34L97,34.28Zm.7,2.87-.86-2.39-.87,2.39Z"/><path d="M100.46,30.67H1.74l-.25-1L50.85,2.38h.49l49.37,27.34Zm-96.76-1H98.5L51.1,3.4Z"/><path d="M51.34,71.64h-.49L1.49,44.29l.25-.95h98.72l.25.95ZM3.7,44.36,51.1,70.62,98.5,44.36Z"/><path d="M57.39,24.11c.83.09,1.12-.06,1.43-.69a4.18,4.18,0,0,0,.28-2.61.51.51,0,0,0-1-.27c-.31.36-.56.78-.85,1.17-.62.85-1.2,1.74-1.88,2.55-2.57,3.06-5.71,3.47-9.21,1.38a6.39,6.39,0,0,1-3.27-5.95c0-.83,0-.88.85-1a27.47,27.47,0,0,1,3.13-.34,48.2,48.2,0,0,1,9.68.39,11.6,11.6,0,0,1,1.28.36v.24a4.52,4.52,0,0,1-1,.28c-2.12.13-4.24.26-6.36.3a24.15,24.15,0,0,1-6.17-.53l-.45-.13a82.09,82.09,0,0,1,12.73.17l0-.31a4.49,4.49,0,0,0-1-.27c-2.89-.11-5.79-.21-8.69-.26a23,23,0,0,0-3,.24c-.75.08-.78.15-.7.93,0,0,0,.07,0,.11.36,2.81,3.61,6.23,6.38,6.66A4.92,4.92,0,0,0,54,25.05c1.22-1.22,2.26-2.61,3.39-3.91A6.62,6.62,0,0,1,58.49,20c.6-.46,1.14-.25,1.25.49a4.54,4.54,0,0,1-.73,3.3c-.39.57-.87.65-1.62.28"/><path d="M44.1,26.2c.11.16.19.39.33.45a7.53,7.53,0,0,0,1.39.38,26,26,0,0,0,10.82-.37c.39-.1.76-.26,1.14-.39a1.13,1.13,0,0,0,.1.13,3.67,3.67,0,0,1-.83.58,27.93,27.93,0,0,1-3.21.81,20.18,20.18,0,0,1-7.06.1c-.93-.19-1.84-.51-2.76-.78a1.31,1.31,0,0,1-.53-.29,2.72,2.72,0,0,1-.35-.57c.2-.06.39-.14.59-.18a2.16,2.16,0,0,1,.44,0l-.07.13"/><path d="M46.36,10.6c-.38.6-.77,1.18-1.13,1.79a2.23,2.23,0,0,0-.23.76,1.42,1.42,0,0,0,.74,1.57,8.05,8.05,0,0,0,1.39.59,4.48,4.48,0,0,1,2.34,1.54,2.43,2.43,0,0,1,0,2.72,8.7,8.7,0,0,0,0-1.25,2.24,2.24,0,0,0-1.33-1.68c-.48-.24-1-.37-1.5-.58a9.24,9.24,0,0,1-1.52-.73,2.09,2.09,0,0,1-.7-2.67,4.11,4.11,0,0,1,1.72-1.92l.24-.12,0,0"/><path d="M51.89,7.78c-.85.41-1.73.81-2.56,1.26a2.19,2.19,0,0,0-.72.7A1.63,1.63,0,0,0,49,12a18.86,18.86,0,0,0,1.86,1.55,8.05,8.05,0,0,1,2.88,3.22,2.28,2.28,0,0,1-1.21,3.05,7,7,0,0,0,.57-1.4,3.06,3.06,0,0,0-1.26-2.73c-.63-.57-1.37-1.06-2-1.61a18.29,18.29,0,0,1-2-1.79c-1.09-1.27-1-2.59.16-3.43a6.06,6.06,0,0,1,3.56-1,2,2,0,0,1,.42,0l-.08-.06"/></svg>